<svg width="31" height="28" viewBox="0 0 31 28" fill="none" xmlns="http://www.w3.org/2000/svg">
<path d="M17.9537 12.4825L13.6739 8.20264L10.9151 10.9614L15.195 15.2412L17.9537 12.4825Z" fill="#E1EAF9"/>
<path d="M16.2608 14.1748L11.981 9.89502L10.9145 10.9615L15.1943 15.2413L16.2608 14.1748Z" fill="#A8ADB5"/>
<path d="M17.5996 11.2408L29.4686 23.1098C30.4887 24.1299 30.4739 25.799 29.4242 26.8003C28.4051 27.7721 26.7834 27.7187 25.7875 26.7228L13.9525 14.8878C13.7812 14.7165 13.7812 14.4392 13.9525 14.268L14.0867 14.1337L16.8455 11.375L16.9797 11.2407C17.151 11.0695 17.4283 11.0695 17.5996 11.2408Z" fill="#B58058"/>
<path d="M26.8062 25.7039L14.9712 13.8689C14.7999 13.6976 14.7999 13.4203 14.9712 13.249L14.0867 14.1335L13.9525 14.2677C13.7812 14.439 13.7812 14.7164 13.9525 14.8876L25.7875 26.7226C26.7834 27.7186 28.4051 27.7718 29.4242 26.8001C29.6219 26.6115 29.7829 26.3991 29.9072 26.1718C28.9164 26.7108 27.6414 26.539 26.8062 25.7039Z" fill="#8E6047"/>
<path d="M21.243 1.72904C18.7215 2.8484 15.8764 5.43819 14.8296 7.24962L11.998 8.83394L10.2004 7.57563L11.7171 4.13487L11.7183 4.13366C12.4332 3.4182 12.9527 2.89869 13.009 2.84295C15.1316 0.720537 18.4926 0.113517 21.243 1.72904Z" fill="#E1EAF9"/>
<path d="M21.243 1.72873C18.7215 2.84809 15.8764 5.43788 14.8296 7.2493L13.8445 6.26419L13.6707 6.0898C13.7977 5.81534 13.878 5.64158 13.8942 5.60682C15.1573 2.88404 18.1043 1.15767 21.243 1.72873Z" fill="#A8ADB5"/>
<path d="M6.31576 8.18848L10.1556 9.14824L10.8156 12.6883L10.711 12.8452C10.0936 12.5378 9.22452 12.7258 8.59531 13.355C7.97 13.9804 7.78047 14.843 8.08108 15.4594L8.01398 15.49L4.67306 14.8106L3.51413 10.9901L3.54768 10.9171C4.16307 11.2068 5.01588 11.0153 5.63574 10.3954C6.26593 9.76523 6.45397 8.89316 6.14361 8.27576L6.31576 8.18848Z" fill="#A8ADB5"/>
<path d="M3.5477 10.9176L3.51415 10.9907L8.01407 15.4906L8.08116 15.4599C8.13839 15.5784 8.21444 15.6879 8.3082 15.7846L5.96643 18.1264L0.860992 13.021L3.20276 10.6792C3.3049 10.7794 3.42085 10.8589 3.5477 10.9176Z" fill="#E1EAF9"/>
<path d="M6.9454 14.3148L6.89786 14.3739L8.22172 15.6977L8.27597 15.6542C8.27121 15.7106 8.2817 15.7547 8.30825 15.7842L5.96649 18.126L4.46451 16.624L6.80628 14.2822C6.83701 14.3111 6.88404 14.3216 6.9454 14.3148Z" fill="#A8ADB5"/>
<path d="M10.0784 3.80322C10.44 3.44165 11.0263 3.44193 11.3875 3.80385L11.7173 4.1344L13.8444 6.26438L14.8295 7.24943L15.182 7.60201C15.5434 7.96335 15.5434 8.54909 15.182 8.91038L14.7816 9.31083L14.7811 9.31037L12.0224 12.0691L12.0228 12.0696L11.0249 13.0675C10.9307 12.9762 10.825 12.9021 10.7111 12.8454L10.8157 12.6885L6.31576 8.18855L6.14355 8.27589C6.08632 8.16137 6.01131 8.05579 5.91949 7.96203L10.0784 3.80322Z" fill="#E1EAF9"/>
</svg>
