<svg width="38" height="38" viewBox="0 0 38 38" fill="none" xmlns="http://www.w3.org/2000/svg">
<path d="M34.5165 15.7758H22.2874V3.54658C22.2874 1.71567 20.8031 0.231445 18.9722 0.231445C17.1413 0.231445 15.6571 1.71567 15.6571 3.54658V15.7758H3.42793C1.59702 15.7758 0.112793 17.26 0.112793 19.0909C0.112793 20.9218 1.59702 22.406 3.42793 22.406H15.6571V34.6352C15.6571 36.4661 17.1413 37.9503 18.9722 37.9503C20.8031 37.9503 22.2874 36.4661 22.2874 34.6352V22.406H34.5165C36.3475 22.406 37.8317 20.9218 37.8317 19.0909C37.8317 17.26 36.3475 15.7758 34.5165 15.7758Z" fill="#FFD042"/>
</svg>
