<svg width="31" height="28" viewBox="0 0 31 28" fill="none" xmlns="http://www.w3.org/2000/svg">
<path d="M15.7526 8.08657L23.153 15.487C23.6415 15.9754 23.9159 16.6379 23.9159 17.3286C23.9159 18.0194 23.6415 18.6818 23.153 19.1703L20.4999 21.8234L9.41679 10.7402L12.0699 8.08713C12.5583 7.59869 13.2208 7.32429 13.9115 7.32429C14.6023 7.32429 15.2647 7.59869 15.7532 8.08713L15.7526 8.08657Z" fill="#FEB36D"/>
<path d="M29.7297 1.46445C29.5344 1.26914 29.3018 1.11519 29.0456 1.01179C28.7895 0.908387 28.5152 0.857661 28.2391 0.862639C27.9629 0.867616 27.6906 0.928195 27.4384 1.04076C27.1862 1.15332 26.9592 1.31556 26.7711 1.51778L18.2926 10.6311L20.563 12.9015L29.6763 4.42302C29.8786 4.2349 30.0408 4.00796 30.1534 3.75574C30.2659 3.50353 30.3265 3.23121 30.3315 2.95506C30.3365 2.67892 30.2857 2.4046 30.1823 2.14849C30.0789 1.89238 29.925 1.65974 29.7297 1.46445Z" fill="#A55D50"/>
<path d="M20.5003 21.8309L14.5165 27.8108L7.49749 20.7918L9.59927 17.3293C9.59927 17.3293 4.40364 20.0977 2.00385 17.6979C-0.0940098 15.604 1.59212 13.9179 1.59212 13.9179C5.16828 15.5021 9.41497 10.7456 9.41497 10.7456L20.5003 21.8309Z" fill="#A55D50"/>
<path d="M11.3158 8.8396L22.3995 19.9233L20.4996 21.8231L9.4159 10.7395L11.3158 8.8396Z" fill="#FEE05B"/>
<path d="M13.9165 22.427L11.5246 24.8189L10.556 23.8504L12.9441 21.4585C13.0725 21.3295 13.2469 21.2568 13.4289 21.2565C13.6109 21.2561 13.7856 21.3281 13.9146 21.4565C14.0435 21.5849 14.1162 21.7593 14.1165 21.9413C14.1169 22.1233 14.045 22.298 13.9165 22.427Z" fill="#774134"/>
</svg>
