<svg width="38" height="39" viewBox="0 0 38 39" fill="none" xmlns="http://www.w3.org/2000/svg">
<path d="M12.8687 17.0141C13.8895 15.8428 14.9953 14.9753 15.9957 14.4905C15.9385 14.4028 15.8762 14.3187 15.8084 14.239C14.7017 12.9365 12.6036 13.2585 11.122 14.9583C9.6405 16.6581 9.33668 19.0919 10.4433 20.3944C10.511 20.4741 10.5825 20.5477 10.6573 20.6153C11.0873 19.459 11.8479 18.1852 12.8687 17.0141Z" fill="#59CC56"/>
<g opacity="0.2">
<path d="M15.8084 14.2389C15.7744 14.1988 15.7394 14.1604 15.7035 14.1235C14.6116 14.503 13.3784 15.224 12.1823 16.2421C11.2282 17.0542 10.4204 17.9509 9.80511 18.8384C9.87588 19.4332 10.0853 19.9731 10.4433 20.3944C10.511 20.4741 10.5825 20.5477 10.6573 20.6152C11.0872 19.459 11.8478 18.1852 12.8686 17.014C13.8895 15.8428 14.9952 14.9753 15.9956 14.4905C15.9385 14.4026 15.8761 14.3186 15.8084 14.2389Z" fill="black"/>
</g>
<path d="M11.126 21.2306C11.2125 21.7435 11.3593 22.2577 11.5507 22.7365C11.8061 23.3752 12.1525 23.9547 12.5657 24.4468C13.3853 25.4229 14.5142 26.0124 15.7547 26.2816C16.6444 26.4747 17.2091 27.3524 17.016 28.2421C16.788 29.2925 15.6413 29.8033 14.683 29.3753C13.8442 29.0006 13.0402 28.5045 12.3355 27.8912C11.6345 27.2811 11.0494 26.5486 10.612 25.7333C10.1819 24.9317 9.89783 24.0825 9.74566 23.2321C9.63174 22.5953 9.58419 21.959 9.60711 21.3167C9.61492 21.0988 9.63427 20.8696 9.65868 20.6501C9.70109 20.2686 10.0448 19.9938 10.4264 20.0362C10.7356 20.0706 10.9749 20.3029 11.0317 20.5929C11.072 20.7981 11.0909 21.0223 11.126 21.2306Z" fill="#783D26"/>
<g opacity="0.2">
<path d="M15.5857 28.5233C14.7469 28.1486 13.9429 27.6525 13.2381 27.0392C12.5372 26.4291 11.9521 25.6966 11.5146 24.8813C11.0845 24.0797 10.8005 23.2305 10.6483 22.3801C10.511 21.6122 10.4664 20.8319 10.5345 20.0572C9.24763 19.7136 9.61656 22.5106 9.74566 23.2322C9.89776 24.0825 10.1819 24.9318 10.612 25.7334C11.0482 26.5464 11.6347 27.2814 12.3355 27.8913C13.0402 28.5046 13.8441 29.0007 14.683 29.3754C15.5156 29.7472 16.5301 29.4166 16.9047 28.577C16.4826 28.7442 16.0012 28.7089 15.5857 28.5233Z" fill="black"/>
</g>
<path d="M25.164 26.8077C24.5419 23.3758 24.7054 19.3496 25.8089 15.2314C26.3246 13.3068 27.0085 11.5028 27.8204 9.85457L24.5773 8.9856C24.4562 10.8189 24.1465 12.7232 23.6308 14.6478C22.5273 18.766 20.6558 22.3345 18.4012 24.9955L25.164 26.8077Z" fill="#783D26"/>
<g opacity="0.2">
<path d="M26.7683 12.2729C26.6063 11.7624 26.2296 11.3563 25.7167 11.2189C25.715 11.2184 25.7132 11.2182 25.7114 11.2176C25.7958 10.5852 25.86 9.95837 25.9008 9.34024L24.5773 8.9856C24.3706 10.8696 24.26 11.9256 23.9603 13.2912C23.8615 13.7419 23.7523 14.1942 23.6308 14.6478C22.5273 18.766 20.6558 22.3345 18.4012 24.9955L20.1098 25.4533C22.3644 22.7923 23.8509 19.1206 24.9544 15.0024C24.9793 14.9092 25.0016 14.8165 25.0255 14.7234C25.3795 14.7561 25.7305 14.6563 26.0294 14.453C26.2508 13.7057 26.4984 12.9788 26.7683 12.2729Z" fill="black"/>
</g>
<path d="M25.4402 16.5444C25.3924 16.5444 25.3438 16.5382 25.2954 16.5252L24.6712 16.3579C24.3735 16.2781 24.1968 15.9721 24.2766 15.6743C24.3564 15.3767 24.6624 15.2001 24.9601 15.2797L25.5844 15.447C25.8821 15.5268 26.0587 15.8328 25.979 16.1306C25.9121 16.3799 25.6866 16.5444 25.4402 16.5444Z" fill="#783D26"/>
<path d="M23.7875 19.5047C23.7396 19.5047 23.691 19.4985 23.6427 19.4855L22.3182 19.1306C22.0205 19.0508 21.8439 18.7448 21.9236 18.447C22.0034 18.1493 22.3095 17.9729 22.6072 18.0524L23.9316 18.4072C24.2293 18.487 24.406 18.7931 24.3262 19.0908C24.2593 19.3402 24.0339 19.5047 23.7875 19.5047Z" fill="#783D26"/>
<path d="M21.8606 21.1931C21.8127 21.1931 21.7641 21.187 21.7158 21.1739L21.4156 21.0935C21.1178 21.0138 20.9412 20.7077 21.0209 20.41C21.1006 20.1122 21.407 19.9353 21.7044 20.0153L22.0046 20.0958C22.3024 20.1755 22.4791 20.4815 22.3993 20.7793C22.3325 21.0287 22.107 21.1931 21.8606 21.1931Z" fill="#783D26"/>
<path d="M24.5748 23.5137C24.5269 23.5137 24.4783 23.5075 24.4299 23.4945L23.2686 23.1832C22.9709 23.1034 22.7942 22.7974 22.874 22.4997C22.9537 22.202 23.2597 22.025 23.5576 22.1051L24.7189 22.4163C25.0166 22.4961 25.1933 22.8022 25.1135 23.0999C25.0466 23.3492 24.8211 23.5137 24.5748 23.5137Z" fill="#783D26"/>
<path opacity="0.2" d="M25.8455 16.1392C25.7977 16.1392 25.7491 16.133 25.7007 16.12L25.0765 15.9527C24.7816 15.8738 24.6059 15.5728 24.68 15.2778C24.49 15.3256 24.3309 15.4719 24.2765 15.6745C24.1968 15.9722 24.3734 16.2783 24.6711 16.3581L25.2954 16.5253C25.3437 16.5383 25.3924 16.5445 25.4402 16.5445C25.6866 16.5445 25.9121 16.3801 25.9788 16.1307C25.9797 16.1273 25.9802 16.1239 25.9811 16.1205C25.9371 16.1316 25.8919 16.1392 25.8455 16.1392Z" fill="black"/>
<path opacity="0.2" d="M24.1927 19.0993C24.1449 19.0993 24.0963 19.0931 24.0479 19.0801L22.7235 18.7252C22.4287 18.6462 22.2529 18.3454 22.327 18.0504C22.1371 18.0982 21.9779 18.2444 21.9236 18.4471C21.8438 18.7448 22.0205 19.0508 22.3182 19.1306L23.6426 19.4855C23.691 19.4985 23.7397 19.5047 23.7874 19.5047C24.0339 19.5047 24.2593 19.3403 24.3261 19.0909C24.327 19.0875 24.3274 19.0841 24.3283 19.0806C24.2843 19.0917 24.2392 19.0993 24.1927 19.0993Z" fill="black"/>
<path opacity="0.2" d="M22.2659 20.7878C22.218 20.7878 22.1695 20.7816 22.1212 20.7686L21.8209 20.6881C21.526 20.6092 21.3502 20.3081 21.4245 20.0131C21.2346 20.0608 21.0752 20.2073 21.0209 20.41C20.9412 20.7077 21.1178 21.0137 21.4156 21.0934L21.7158 21.1739C21.7641 21.1869 21.8128 21.1931 21.8606 21.1931C22.107 21.1931 22.3325 21.0286 22.3992 20.7792C22.4001 20.7758 22.4006 20.7724 22.4014 20.769C22.3574 20.7802 22.3123 20.7878 22.2659 20.7878Z" fill="black"/>
<path opacity="0.2" d="M24.98 23.1083C24.9322 23.1083 24.8836 23.1021 24.8352 23.0891L23.6739 22.7778C23.379 22.6988 23.2032 22.3978 23.2775 22.1027C23.0874 22.1504 22.9283 22.2969 22.874 22.4996C22.7942 22.7973 22.9708 23.1033 23.2686 23.1831L24.4299 23.4944C24.4783 23.5074 24.5269 23.5136 24.5747 23.5136C24.8211 23.5136 25.0466 23.3491 25.1134 23.0998C25.1142 23.0963 25.1147 23.0929 25.1156 23.0895C25.0716 23.1007 25.0264 23.1083 24.98 23.1083Z" fill="black"/>
<path d="M27.8944 4.15371C25.3092 6.09227 24.6767 9.61504 26.4817 12.022C26.4822 12.0226 26.4826 12.0232 26.4831 12.0238C26.5378 12.0968 26.6525 12.076 26.6799 11.9889C26.837 11.4886 27.0559 10.985 27.3325 10.4892C27.3517 10.4546 27.3517 10.4125 27.332 10.3782L27.0651 9.91343C26.9221 9.6643 27.1023 9.35378 27.3895 9.35445L28.0226 9.35594C28.0575 9.35601 28.0903 9.33986 28.1116 9.31218C28.5419 8.75477 29.0474 8.22028 29.6225 7.72626C29.651 7.70178 29.6657 7.66472 29.6612 7.62737L29.5781 6.93765C29.5438 6.65243 29.831 6.43701 30.0952 6.54989L30.734 6.82283C30.7686 6.83764 30.8082 6.834 30.8398 6.81346C31.4752 6.39973 32.1299 6.06421 32.7855 5.80735C32.8181 5.79462 32.8428 5.76768 32.8524 5.73413L33.0283 5.12604C33.1082 4.85012 33.4567 4.76403 33.6558 4.97119L34.0272 5.35761C34.0546 5.38618 34.095 5.39794 34.1336 5.38908C34.687 5.26243 35.2318 5.19338 35.7561 5.18274C35.8473 5.18088 35.8994 5.07663 35.8447 5.00356C35.8443 5.00296 35.8438 5.00237 35.8434 5.00177C34.0385 2.59487 30.4796 2.21515 27.8944 4.15371Z" fill="#59CC56"/>
<g opacity="0.2">
<path d="M35.8448 5.00355C35.8443 5.00295 35.8439 5.00235 35.8434 5.00176C35.5449 4.60373 35.1978 4.26248 34.8158 3.97667C34.3848 4.00316 33.9421 4.06738 33.4934 4.16999C33.4547 4.17885 33.4143 4.16702 33.3869 4.13852L33.0155 3.7521C32.8164 3.54501 32.4678 3.63103 32.3881 3.90695L32.2122 4.51504C32.2024 4.5486 32.1778 4.57553 32.1453 4.58826C31.4896 4.84512 30.8349 5.18072 30.1995 5.59437C30.1679 5.61491 30.1283 5.61855 30.0937 5.60375L29.4549 5.33081C29.1908 5.21792 28.9035 5.43334 28.9378 5.71856L29.0209 6.40828C29.0253 6.44563 29.0108 6.48262 28.9823 6.50717C28.4071 7.00119 27.9016 7.53576 27.4713 8.0931C27.45 8.12078 27.4172 8.13692 27.3823 8.13685L26.7493 8.13536C26.462 8.13469 26.2817 8.44521 26.4248 8.69434L26.6917 9.15911C26.7115 9.19341 26.7115 9.23553 26.6922 9.27013C26.4156 9.76593 26.1967 10.2695 26.0396 10.7698C26.0123 10.8569 25.8975 10.8777 25.8428 10.8047C25.8423 10.8041 25.8419 10.8035 25.8414 10.8029C25.8158 10.7687 25.7923 10.7334 25.7677 10.6987C25.9363 11.1634 26.1723 11.6093 26.4818 12.0219C26.4823 12.0225 26.4827 12.0231 26.4832 12.0237C26.5379 12.0967 26.6526 12.0759 26.68 11.9888C26.8371 11.4885 27.056 10.9849 27.3326 10.4891C27.3518 10.4545 27.3518 10.4124 27.3321 10.3781L27.0652 9.91334C26.9222 9.66421 27.1024 9.35369 27.3896 9.35436L28.0227 9.35585C28.0576 9.35593 28.0904 9.33978 28.1117 9.3121C28.542 8.75468 29.0475 8.22019 29.6226 7.72617C29.6511 7.70169 29.6658 7.66464 29.6613 7.62728L29.5782 6.93756C29.5439 6.65235 29.8311 6.43693 30.0953 6.54981L30.7341 6.82275C30.7687 6.83756 30.8083 6.83391 30.8399 6.81337C31.4753 6.39965 32.13 6.06413 32.7856 5.80726C32.8182 5.79454 32.8429 5.7676 32.8525 5.73396L33.0284 5.12588C33.1083 4.84996 33.4569 4.76387 33.6559 4.97103L34.0273 5.35744C34.0547 5.38602 34.0951 5.39778 34.1337 5.38892C34.6871 5.26227 35.2319 5.19322 35.7562 5.18258C35.8474 5.18087 35.8994 5.07662 35.8448 5.00355Z" fill="black"/>
</g>
<path d="M27.893 3.6437C28.8195 6.33969 27.5356 9.22461 25.0255 10.0872C25.0249 10.0874 25.0242 10.0876 25.0236 10.0879C24.9474 10.114 24.874 10.042 24.8972 9.96485C25.0305 9.52181 25.1202 9.0458 25.1639 8.5468C25.167 8.51198 25.1878 8.48124 25.2192 8.46599L25.6443 8.25898C25.8722 8.14803 25.8944 7.83201 25.6844 7.69018L25.2217 7.37758C25.1962 7.36031 25.1802 7.33234 25.1783 7.30153C25.1404 6.68146 25.0362 6.04078 24.8612 5.39519C24.8525 5.36319 24.8603 5.32889 24.8821 5.30389L25.2844 4.84157C25.4508 4.65041 25.3478 4.35083 25.0991 4.30232L24.4976 4.18504C24.465 4.17872 24.4379 4.15639 24.425 4.12581C24.1662 3.50902 23.8545 2.93962 23.5033 2.4273C23.4859 2.40186 23.4812 2.37001 23.4907 2.34069L23.6637 1.80969C23.7421 1.56875 23.5303 1.33316 23.2824 1.3857L22.8198 1.4837C22.7856 1.49091 22.7503 1.47953 22.7265 1.45393C22.3852 1.08731 22.0219 0.766969 21.6444 0.499387C21.5787 0.452805 21.5924 0.350937 21.6685 0.324669C21.6691 0.324446 21.6697 0.324223 21.6703 0.324C24.1805 -0.538574 26.9665 0.947714 27.893 3.6437Z" fill="#59CC56"/>
<g opacity="0.2">
<path d="M26.6312 8.21555C26.6342 8.1808 26.6551 8.14999 26.6865 8.13474L27.1116 7.92772C27.3394 7.81678 27.3617 7.50075 27.1517 7.35892L26.6889 7.04632C26.6634 7.02906 26.6475 7.00108 26.6455 6.97028C26.6077 6.35021 26.5035 5.70953 26.3285 5.06394C26.3198 5.03194 26.3275 4.99764 26.3493 4.97264L26.7517 4.51032C26.918 4.31916 26.8151 4.01958 26.5664 3.97106L25.9648 3.85372C25.9322 3.84739 25.9052 3.82507 25.8923 3.79448C25.6335 3.17769 25.3218 2.6083 24.9706 2.09598C24.9531 2.07053 24.9485 2.03868 24.958 2.00936L25.1309 1.47836C25.2093 1.23742 24.9976 1.00184 24.7496 1.05437L24.287 1.15237C24.2529 1.15959 24.2175 1.1482 24.1937 1.1226C23.8525 0.755981 23.4891 0.435641 23.1116 0.168059C23.081 0.146331 23.0682 0.112474 23.0704 0.0799561C22.6032 0.0867275 22.1321 0.165306 21.6703 0.324024C21.6697 0.324248 21.669 0.324471 21.6684 0.324694C21.5923 0.350887 21.5786 0.45283 21.6443 0.499411C22.0217 0.766994 22.3851 1.08726 22.7264 1.45396C22.7502 1.47955 22.7855 1.49094 22.8197 1.48372L23.2823 1.38572C23.5303 1.33319 23.742 1.5687 23.6636 1.80972L23.4907 2.34071C23.4811 2.37003 23.4858 2.40195 23.5032 2.42733C23.8545 2.93972 24.1662 3.50904 24.425 4.12591C24.4378 4.15649 24.4649 4.17882 24.4975 4.18514L25.0991 4.30241C25.3478 4.35093 25.4507 4.65051 25.2843 4.84167L24.882 5.30399C24.8602 5.32899 24.8525 5.36329 24.8612 5.39529C25.0362 6.04088 25.1404 6.68156 25.1782 7.30163C25.1801 7.33244 25.196 7.36041 25.2216 7.37768L25.6844 7.69028C25.8944 7.83211 25.8721 8.14813 25.6443 8.25908L25.2192 8.46609C25.1878 8.48134 25.1669 8.51215 25.1639 8.5469C25.1201 9.04583 25.0304 9.52191 24.8971 9.96495C24.8739 10.042 24.9473 10.1141 25.0235 10.088C25.0241 10.0877 25.0247 10.0875 25.0253 10.0873C25.5636 9.9023 26.045 9.62378 26.4608 9.27464C26.5418 8.93659 26.599 8.58232 26.6312 8.21555Z" fill="black"/>
</g>
<path d="M31.4788 5.46589C28.2484 5.39513 25.576 7.77606 25.5102 10.7839C25.5102 10.7847 25.5102 10.7854 25.5101 10.7861C25.5082 10.8774 25.6112 10.9318 25.6865 10.8802C26.1189 10.5836 26.6019 10.3226 27.1256 10.1033C27.1622 10.088 27.1881 10.0548 27.1939 10.0157L27.2708 9.48528C27.312 9.20103 27.6455 9.06799 27.8712 9.24583L28.3682 9.63775C28.3957 9.65941 28.4314 9.66692 28.4653 9.65836C29.1478 9.48551 29.8755 9.37702 30.633 9.34338C30.6706 9.34174 30.7049 9.32158 30.7245 9.28943L31.0849 8.69556C31.2339 8.45 31.5929 8.45789 31.7311 8.7097L32.0652 9.31875C32.0833 9.35172 32.1167 9.37337 32.1542 9.37664C32.9095 9.44339 33.6317 9.58365 34.306 9.78628C34.3395 9.79632 34.3755 9.79037 34.4039 9.76998L34.9176 9.40023C35.1507 9.23243 35.4781 9.37992 35.5069 9.66573L35.5605 10.199C35.5645 10.2384 35.589 10.2727 35.6248 10.2895C36.1384 10.5316 36.6096 10.8134 37.0286 11.1287C37.1015 11.1836 37.2069 11.1337 37.2089 11.0425C37.2089 11.0417 37.2089 11.041 37.2089 11.0403C37.2747 8.03241 34.7093 5.53666 31.4788 5.46589Z" fill="#59CC56"/>
<g opacity="0.2">
<path d="M37.2088 11.0403C37.2198 10.5396 37.1564 10.0536 37.0305 9.59011C36.7379 9.35899 36.4219 9.14171 36.0821 8.94266C36.0479 8.92264 36.0266 8.88633 36.0261 8.84674L36.0203 8.31084C36.0172 8.02361 35.7044 7.84748 35.4572 7.99377L34.9124 8.31619C34.8824 8.33398 34.8459 8.33673 34.8135 8.32371C34.1599 8.06163 33.4531 7.85745 32.7068 7.72343C32.6698 7.71681 32.6384 7.69226 32.6234 7.6578L32.3451 7.02129C32.23 6.7581 31.8732 6.71821 31.7028 6.94948L31.2907 7.50876C31.2684 7.53904 31.2324 7.55601 31.1948 7.5543C30.4373 7.52007 29.7029 7.56308 29.0076 7.67432C28.9731 7.67983 28.9382 7.66911 28.9127 7.64515L28.4527 7.21037C28.2439 7.01311 27.8999 7.11579 27.8333 7.39521L27.7093 7.91661C27.7001 7.95508 27.6713 7.98581 27.6335 7.99779C27.0923 8.16945 26.5879 8.38621 26.1307 8.64301C26.0971 8.66191 26.0606 8.66064 26.03 8.64702C25.7116 9.29931 25.5267 10.0213 25.51 10.784C25.51 10.7847 25.51 10.7855 25.5099 10.7862C25.508 10.8774 25.611 10.9319 25.6863 10.8803C26.1187 10.5836 26.6017 10.3226 27.1255 10.1033C27.162 10.088 27.188 10.0549 27.1937 10.0157L27.2706 9.48534C27.3119 9.20109 27.6454 9.06804 27.871 9.24589L28.368 9.63781C28.3955 9.65946 28.4312 9.66698 28.4651 9.65842C29.1476 9.48556 29.8753 9.37707 30.6328 9.34344C30.6704 9.3418 30.7047 9.32164 30.7243 9.28949L31.0847 8.69562C31.2338 8.45006 31.5927 8.45795 31.7309 8.70975L32.065 9.31881C32.0831 9.35177 32.1165 9.37343 32.154 9.3767C32.9093 9.44345 33.6315 9.58371 34.3058 9.78633C34.3393 9.79638 34.3753 9.79043 34.4037 9.77004L34.9174 9.40029C35.1505 9.23249 35.4779 9.37997 35.5067 9.66579L35.5603 10.1991C35.5643 10.2385 35.5888 10.2727 35.6246 10.2896C36.1382 10.5316 36.6094 10.8135 37.0284 11.1288C37.1013 11.1837 37.2067 11.1338 37.2087 11.0425C37.2088 11.0418 37.2088 11.0411 37.2088 11.0403Z" fill="black"/>
</g>
<path d="M24.6262 3.417C27.3112 5.21477 28.1309 8.6987 26.4571 11.1987C26.4567 11.1993 26.4563 11.2 26.4559 11.2005C26.405 11.2764 26.2894 11.2617 26.2575 11.1762C26.0739 10.685 25.8284 10.1938 25.5257 9.71352C25.5046 9.68003 25.5024 9.63799 25.5202 9.60264L25.7619 9.12425C25.8915 8.86791 25.6949 8.56744 25.4081 8.58343L24.776 8.61871C24.7411 8.62064 24.7076 8.60628 24.6847 8.57979C24.2253 8.04619 23.6919 7.53937 23.0913 7.07676C23.0615 7.05384 23.0449 7.0176 23.0475 6.9801L23.0935 6.28696C23.1126 6.00033 22.8143 5.80061 22.5565 5.9274L21.9332 6.23405C21.8994 6.25065 21.8596 6.24916 21.827 6.23033C21.1704 5.85113 20.4987 5.55103 19.8304 5.32951C19.7972 5.3185 19.7711 5.29297 19.7596 5.25994L19.5515 4.66212C19.4571 4.39082 19.1043 4.32355 18.9166 4.54098L18.5664 4.94667C18.5405 4.97665 18.5007 4.99057 18.4617 4.9838C17.9023 4.88691 17.3547 4.84703 16.8306 4.86437C16.7393 4.86742 16.6817 4.76607 16.7325 4.69017C16.7329 4.68958 16.7333 4.68891 16.7338 4.68831C18.4077 2.18847 21.9412 1.61922 24.6262 3.417Z" fill="#59CC56"/>
<g opacity="0.2">
<path d="M26.4837 8.0991C26.4607 8.06688 26.4559 8.02506 26.4717 7.98875L26.6851 7.49712C26.7995 7.23363 26.5857 6.94514 26.3003 6.9778L25.6715 7.04991C25.6367 7.05385 25.6024 7.0415 25.5781 7.01642C25.0883 6.5105 24.5264 6.03568 23.8997 5.60886C23.8686 5.58765 23.85 5.55253 23.8503 5.51488L23.8558 4.82025C23.8581 4.53303 23.5487 4.35102 23.2987 4.49262L22.6944 4.83506C22.6616 4.85359 22.6218 4.85441 22.5882 4.83752C21.9107 4.49723 21.2226 4.23687 20.5425 4.05471C20.5087 4.04563 20.4811 4.02167 20.4678 3.98938L20.2251 3.40473C20.115 3.13945 19.759 3.0928 19.5843 3.32079L19.2583 3.7462C19.2342 3.7776 19.1953 3.79383 19.156 3.78936C18.5948 3.72559 18.0487 3.71755 17.529 3.76466C17.2335 4.03544 16.9654 4.34283 16.7339 4.68862C16.7334 4.68921 16.7331 4.68988 16.7326 4.69048C16.6819 4.76638 16.7395 4.86765 16.8307 4.86468C17.3548 4.84726 17.9024 4.88722 18.4619 4.98411C18.5008 4.99088 18.5406 4.97689 18.5665 4.94697L18.9167 4.54129C19.1045 4.32386 19.4571 4.3912 19.5516 4.66243L19.7597 5.26025C19.7712 5.29328 19.7973 5.31881 19.8305 5.32982C20.4989 5.55134 21.1706 5.85144 21.8272 6.23057C21.8598 6.24939 21.8995 6.25088 21.9333 6.23429L22.5566 5.92764C22.8144 5.80084 23.1127 6.00064 23.0936 6.28719L23.0476 6.98033C23.0451 7.01784 23.0616 7.05407 23.0914 7.07699C23.6921 7.53961 24.2254 8.04635 24.6849 8.58002C24.7076 8.60651 24.7413 8.62087 24.7762 8.61894L25.4082 8.58367C25.695 8.56767 25.8916 8.86814 25.762 9.12449L25.5203 9.60288C25.5025 9.63822 25.5047 9.68026 25.5258 9.71375C25.8286 10.1941 26.074 10.6852 26.2576 11.1764C26.2895 11.2619 26.4052 11.2766 26.456 11.2008C26.4564 11.2002 26.4568 11.1995 26.4572 11.1989C26.8424 10.6236 27.094 9.99599 27.2227 9.34906C27.0228 8.92611 26.7754 8.5071 26.4837 8.0991Z" fill="black"/>
</g>
<path d="M32.668 8.91077C30.1802 6.89497 26.642 7.13867 24.7651 9.45501C24.7646 9.45561 24.7642 9.45613 24.7637 9.45673C24.7067 9.52704 24.7544 9.63219 24.8448 9.6374C25.3636 9.66746 25.9004 9.75608 26.4437 9.90208C26.4815 9.91227 26.522 9.90208 26.5502 9.87484L26.9324 9.50599C27.1372 9.30835 27.4792 9.4065 27.548 9.68271L27.6996 10.2914C27.7079 10.325 27.7313 10.3526 27.7631 10.3664C28.4027 10.6451 29.0386 11.0018 29.6524 11.4351C29.6828 11.4566 29.722 11.4617 29.7567 11.4483L30.3995 11.2018C30.6653 11.0999 30.9417 11.3238 30.8971 11.605L30.7892 12.2849C30.7834 12.3217 30.7964 12.3589 30.8238 12.3842C31.375 12.8948 31.8556 13.4429 32.261 14.0109C32.2811 14.0391 32.3129 14.0563 32.3475 14.0575L32.9743 14.0796C33.2588 14.0896 33.4257 14.4038 33.2748 14.6451L32.9932 15.0954C32.9725 15.1287 32.9709 15.1705 32.9887 15.2054C33.2442 15.7066 33.4422 16.2133 33.5792 16.7146C33.603 16.8019 33.7158 16.8267 33.7728 16.7565C33.7732 16.7559 33.7737 16.7553 33.7742 16.7547C35.6511 14.4384 35.1558 10.9266 32.668 8.91077Z" fill="#59CC56"/>
<path d="M21.1027 5.57671C24.3002 5.40884 27.019 7.68626 27.1754 10.6634C27.1754 10.6641 27.1754 10.6649 27.1755 10.6656C27.1802 10.7559 27.0798 10.8129 27.0037 10.7641C26.5664 10.4834 26.08 10.2395 25.5548 10.0382C25.5182 10.0241 25.4914 9.99212 25.4845 9.9535L25.3923 9.43046C25.3428 9.15015 25.0084 9.02849 24.7904 9.21147L24.3099 9.6147C24.2834 9.63695 24.2483 9.64551 24.2144 9.63807C23.5331 9.48746 22.8091 9.40211 22.0578 9.39169C22.0205 9.39117 21.9859 9.37227 21.9656 9.34102L21.5907 8.76374C21.4356 8.52503 21.0803 8.5437 20.9511 8.7973L20.6387 9.41067C20.6218 9.44385 20.5892 9.46633 20.5523 9.47072C19.8062 9.55971 19.0951 9.72044 18.4333 9.94152C18.4005 9.95245 18.3646 9.94769 18.3359 9.92835L17.8159 9.57765C17.5799 9.41848 17.2601 9.57452 17.2403 9.85847L17.2033 10.3883C17.2006 10.4274 17.1773 10.4621 17.1424 10.4799C16.6411 10.7351 16.1829 11.0286 15.7774 11.3536C15.7068 11.4102 15.6009 11.364 15.5962 11.2736C15.5961 11.2729 15.5961 11.2721 15.596 11.2714C15.4397 8.29413 17.9052 5.74458 21.1027 5.57671Z" fill="#59CC56"/>
<g opacity="0.2">
<path d="M34.2815 15.86C34.1446 15.3587 33.9465 14.8519 33.691 14.3507C33.6733 14.3157 33.6748 14.274 33.6956 14.2408L33.9772 13.7904C34.1281 13.5491 33.9611 13.2349 33.6767 13.2249L33.0498 13.2028C33.0152 13.2016 32.9834 13.1844 32.9633 13.1562C32.558 12.5883 32.0773 12.0402 31.5261 11.5296C31.4988 11.5043 31.4857 11.467 31.4915 11.4303L31.5994 10.7504C31.6441 10.4693 31.3676 10.2453 31.1018 10.3472L30.4591 10.5937C30.4242 10.6071 30.3852 10.602 30.3547 10.5805C29.7409 10.1472 29.1051 9.79063 28.4654 9.51181C28.4337 9.49797 28.4103 9.47036 28.4019 9.4368L28.2503 8.82812C28.1816 8.5519 27.8396 8.45376 27.6347 8.65139L27.2525 9.02025C27.2243 9.04748 27.1839 9.05768 27.1459 9.04748C26.6026 8.90149 26.0658 8.81286 25.547 8.7828C25.5147 8.78094 25.4882 8.76591 25.4697 8.74463C25.4687 8.74545 25.4677 8.74634 25.4668 8.74716L25.376 8.2329C25.3266 7.9526 24.9922 7.83094 24.7742 8.01391L24.2937 8.41715C24.2672 8.43939 24.2321 8.44795 24.1982 8.44051C23.5169 8.2899 22.7929 8.20455 22.0416 8.19414C22.0043 8.19361 21.9697 8.17471 21.9494 8.14346L21.5745 7.56618C21.4194 7.32747 21.0641 7.34615 20.9349 7.59974L20.6224 8.21311C20.6056 8.2463 20.5731 8.26877 20.5361 8.27316C19.79 8.36216 19.0789 8.52288 18.4171 8.74396C18.3843 8.7549 18.3484 8.75014 18.3197 8.73079L17.7997 8.38009C17.5637 8.22092 17.2439 8.37696 17.2241 8.66092L17.1871 9.19072C17.1844 9.22986 17.1611 9.26454 17.1262 9.28232C16.6249 9.53755 16.1667 9.83103 15.7612 10.1561C15.7295 10.1814 15.6911 10.1852 15.6575 10.1746C15.5983 10.5309 15.5765 10.8979 15.596 11.2716C15.5961 11.2723 15.5961 11.273 15.5962 11.2738C15.601 11.3641 15.7068 11.4103 15.7774 11.3538C16.1829 11.0288 16.641 10.7353 17.1424 10.48C17.1774 10.4623 17.2006 10.4276 17.2033 10.3884L17.2403 9.85864C17.2601 9.57469 17.5799 9.41872 17.8159 9.57781L18.3359 9.92851C18.3647 9.94786 18.4005 9.95269 18.4333 9.94168C19.0952 9.72061 19.8062 9.55988 20.5523 9.47088C20.5893 9.46649 20.6217 9.44402 20.6387 9.41083L20.9511 8.79746C21.0803 8.54379 21.4356 8.52519 21.5907 8.7639L21.9656 9.34118C21.986 9.37244 22.0206 9.39134 22.0578 9.39186C22.8091 9.40227 23.5331 9.48762 24.2144 9.63823C24.2482 9.64567 24.2834 9.63719 24.31 9.61487L24.7904 9.21163C24.8706 9.14429 24.9666 9.11847 25.0584 9.12643C24.9569 9.23113 24.8585 9.33999 24.7651 9.45526C24.7647 9.45585 24.7642 9.45637 24.7637 9.45697C24.7068 9.52729 24.7545 9.63243 24.8448 9.63764C25.0406 9.64895 25.2389 9.66867 25.4392 9.69665L25.4845 9.95366C25.4914 9.99228 25.5181 10.0244 25.5548 10.0383C26.0801 10.2397 26.5665 10.4836 27.0037 10.7643C27.0798 10.8132 27.1802 10.7561 27.1755 10.6658C27.1755 10.665 27.1755 10.6643 27.1754 10.6635C27.1556 10.2869 27.0945 9.92166 26.9969 9.57096C26.9938 9.56933 26.9905 9.56858 26.9874 9.56657C26.9639 9.55147 26.9397 9.53696 26.9159 9.52208L26.9324 9.50615C27.1372 9.30852 27.4792 9.40667 27.548 9.68288L27.6996 10.2916C27.7079 10.3252 27.7314 10.3527 27.7632 10.3666C28.4028 10.6453 29.0386 11.002 29.6525 11.4353C29.6829 11.4568 29.722 11.4618 29.7568 11.4485L30.3995 11.202C30.6653 11.1 30.9418 11.324 30.8971 11.6051L30.7892 12.285C30.7834 12.3219 30.7964 12.3591 30.8238 12.3844C31.375 12.895 31.8557 13.4431 32.261 14.0111C32.2811 14.0393 32.3129 14.0565 32.3476 14.0577L32.9745 14.0798C33.2589 14.0898 33.4258 14.404 33.2749 14.6453L32.9934 15.0956C32.9726 15.1289 32.971 15.1706 32.9888 15.2055C33.2443 15.7068 33.4423 16.2135 33.5793 16.7148C33.6031 16.8021 33.7159 16.8269 33.7729 16.7566C33.7733 16.756 33.7738 16.7555 33.7743 16.7549C33.9883 16.4908 34.1699 16.2106 34.3228 15.9194C34.3038 15.9053 34.2886 15.8857 34.2815 15.86Z" fill="black"/>
</g>
<path d="M25.5111 13.8272C26.3514 13.8272 27.0327 13.1459 27.0327 12.3056C27.0327 11.4652 26.3514 10.7839 25.5111 10.7839C24.6707 10.7839 23.9894 11.4652 23.9894 12.3056C23.9894 13.1459 24.6707 13.8272 25.5111 13.8272Z" fill="#E87941"/>
<g opacity="0.2">
<path d="M26.0258 10.8749C25.9864 10.8602 25.9463 10.8469 25.9049 10.8359C25.8547 10.8224 25.8045 10.812 25.7543 10.8038C25.7418 10.8018 25.7295 10.801 25.717 10.7993C25.6792 10.7941 25.6415 10.7895 25.6039 10.7871C25.6013 10.787 25.5987 10.7864 25.5961 10.7863C25.5961 10.7865 25.5961 10.7867 25.596 10.787C25.3917 10.7754 25.1912 10.8057 25.0048 10.8717C25.005 10.8714 25.0052 10.8711 25.0055 10.8708C24.9676 10.8842 24.9305 10.8996 24.8938 10.9159C24.8897 10.9178 24.8855 10.9197 24.8813 10.9217C24.8494 10.9362 24.8179 10.9518 24.7871 10.9685C24.7844 10.9699 24.7816 10.9713 24.7789 10.9728C24.7109 11.0102 24.6459 11.0527 24.5842 11.0999C24.5822 11.1015 24.5803 11.1031 24.5783 11.1046C24.5487 11.1276 24.52 11.1515 24.4922 11.1765C24.4911 11.1776 24.4899 11.1785 24.4887 11.1796C24.2793 11.3692 24.1198 11.6187 24.0412 11.9119C23.8237 12.7237 24.3055 13.558 25.1172 13.7755C25.7134 13.9353 26.3208 13.7169 26.688 13.2686C26.4083 13.3675 26.0969 13.3862 25.7886 13.3036C25.1279 13.1265 24.6859 12.5406 24.6617 11.891C25.002 11.8916 25.3283 11.7825 25.5964 11.5889C25.5978 11.5948 25.5988 11.6007 25.6003 11.6065C25.77 12.2642 26.3081 12.7279 26.9366 12.8366C26.9532 12.792 26.9683 12.7465 26.9808 12.6996C27.1873 11.929 26.7633 11.1393 26.0258 10.8749Z" fill="black"/>
</g>
<path d="M24.7453 11.4674C25.6257 11.4674 26.3394 10.7537 26.3394 9.87328C26.3394 8.99288 25.6257 8.27917 24.7453 8.27917C23.8649 8.27917 23.1512 8.99288 23.1512 9.87328C23.1512 10.7537 23.8649 11.4674 24.7453 11.4674Z" fill="#E87941"/>
<g opacity="0.2">
<path d="M25.0934 10.7623C24.243 10.5344 23.7383 9.66024 23.9662 8.80987C24.0059 8.66156 24.0663 8.52465 24.1418 8.39941C23.6973 8.5818 23.3394 8.96062 23.2055 9.46052C22.9776 10.311 23.4823 11.1851 24.3327 11.4129C25.0349 11.601 25.7521 11.289 26.1095 10.6961C25.7979 10.824 25.444 10.8562 25.0934 10.7623Z" fill="black"/>
</g>
<path d="M27.3905 12.5447C28.3147 12.5447 29.064 11.7955 29.064 10.8713C29.064 9.9471 28.3147 9.19788 27.3905 9.19788C26.4663 9.19788 25.7171 9.9471 25.7171 10.8713C25.7171 11.7955 26.4663 12.5447 27.3905 12.5447Z" fill="#E87941"/>
<g opacity="0.2">
<path d="M28.3369 11.7863C27.442 12.0171 26.5294 11.4788 26.2986 10.5838C26.2064 10.2265 26.2385 9.86711 26.3654 9.54871C25.8537 9.94576 25.5981 10.6222 25.7701 11.2891C26.0009 12.184 26.9135 12.7224 27.8084 12.4916C28.3461 12.353 28.7533 11.9675 28.9441 11.4884C28.7692 11.6241 28.5648 11.7275 28.3369 11.7863Z" fill="black"/>
</g>
<path d="M27.7308 30.5452C27.7495 30.3963 27.7595 30.2458 27.7595 30.0939C27.7595 27.086 24.0369 24.6477 19.4449 24.6477C14.8529 24.6477 11.1304 27.086 11.1304 30.0939C11.1304 30.2459 11.1403 30.3963 11.159 30.5452H27.7308Z" fill="#FAE8B4"/>
<path d="M11.3042 6.28818C11.3042 6.8232 10.3343 7.19831 10.1775 7.68109C10.015 8.18143 10.5736 9.05397 10.2705 9.47045C9.96436 9.8911 8.95988 9.6279 8.53931 9.93403C8.12283 10.2371 8.06449 11.2753 7.56415 11.4377C7.08137 11.5945 6.42603 10.7939 5.89109 10.7939C5.35607 10.7939 4.70074 11.5944 4.21796 11.4377C3.71762 11.2752 3.65928 10.237 3.2428 9.93388C2.82215 9.62775 1.81775 9.89095 1.51162 9.4703C1.20855 9.05382 1.76708 8.18128 1.60464 7.68101C1.44785 7.19823 0.477905 6.82312 0.477905 6.28818C0.477905 5.75317 1.44785 5.37806 1.60464 4.89528C1.76708 4.39494 1.20855 3.5224 1.51162 3.10592C1.81775 2.68527 2.82223 2.94846 3.2428 2.64234C3.65928 2.33926 3.71762 1.30108 4.21796 1.13864C4.70074 0.981853 5.35607 1.78244 5.89102 1.78244C6.42603 1.78244 7.08137 0.981927 7.56415 1.13871C8.06449 1.30115 8.12283 2.33933 8.53931 2.64249C8.95995 2.94861 9.96436 2.68542 10.2705 3.10607C10.5736 3.52255 10.015 4.39509 10.1775 4.89536C10.3343 5.37806 11.3042 5.75317 11.3042 6.28818Z" fill="#FFD042"/>
<path d="M5.89101 8.83757C7.29901 8.83757 8.44041 7.69616 8.44041 6.28817C8.44041 4.88017 7.29901 3.73877 5.89101 3.73877C4.48302 3.73877 3.34161 4.88017 3.34161 6.28817C3.34161 7.69616 4.48302 8.83757 5.89101 8.83757Z" fill="#E87941"/>
<g opacity="0.2">
<path d="M7.22759 8.02897C5.81958 8.02897 4.67819 6.88757 4.67819 5.47957C4.67819 4.83948 4.91466 4.25498 5.30421 3.80725C4.17919 4.07238 3.34161 5.08206 3.34161 6.28797C3.34161 7.69598 4.48301 8.83737 5.89101 8.83737C6.65886 8.83737 7.34694 8.49738 7.81432 7.96028C7.62591 8.00478 7.42961 8.02897 7.22759 8.02897Z" fill="black"/>
</g>
<path d="M27.7594 30.0938C27.7594 29.2536 27.4687 28.4578 26.9499 27.7472C25.8243 28.0065 25.6051 28.8954 24.1063 28.8954C22.352 28.8954 22.352 27.6765 20.5975 27.6765C18.8431 27.6765 18.8431 28.8954 17.0886 28.8954C15.335 28.8954 15.335 27.6765 13.5805 27.6765C12.4821 27.6765 12.0713 28.1543 11.4872 28.5116C11.2554 29.0123 11.1303 29.5434 11.1303 30.0938C11.1303 30.2458 11.1403 30.3962 11.159 30.5451H27.7308C27.7494 30.3963 27.7594 30.2459 27.7594 30.0938Z" fill="#FFD042"/>
<path d="M36.3243 31.0246C36.3243 30.4857 35.9525 29.9683 35.2704 29.4883C34.4264 28.8945 33.6104 28.8954 32.6204 28.8954C30.866 28.8954 30.866 27.6765 29.1116 27.6765C27.3572 27.6765 27.3572 28.8954 25.6027 28.8954C23.8483 28.8954 23.8483 27.6765 22.0938 27.6765C20.3394 27.6765 20.3394 28.8954 18.585 28.8954C16.8313 28.8954 16.8313 27.6765 15.0769 27.6765C13.3225 27.6765 13.3225 28.8954 11.568 28.8954C9.81362 28.8954 9.81362 27.6765 8.05916 27.6765C6.28624 27.6765 5.96352 29.1458 4.07839 28.862C3.22832 28.7341 2.3589 28.9356 1.64328 29.4119C0.890095 29.9132 0.477783 30.4568 0.477783 31.0246C0.477783 32.3842 2.84294 33.3082 6.5882 33.869C4.99975 34.3119 4.06909 34.8484 4.06909 35.4267C4.06909 36.9459 10.4857 38.1774 18.401 38.1774C26.3162 38.1774 32.7328 36.9459 32.7328 35.4267C32.7328 34.8484 31.8023 34.3119 30.2139 33.8691C33.9593 33.3082 36.3243 32.3842 36.3243 31.0246Z" fill="#3FC2C4"/>
<g opacity="0.2">
<path d="M7.12029 32.4173C3.66478 31.8999 1.38572 31.073 1.05355 29.8804C0.678146 30.246 0.477905 30.6295 0.477905 31.0247C0.477905 32.1492 2.09702 32.9755 4.77567 33.545C5.11446 33.1312 5.93373 32.7482 7.12029 32.4173Z" fill="black"/>
</g>
<g opacity="0.2">
<path d="M32.4568 34.8873C30.4961 35.9581 25.1821 36.7258 18.9331 36.7258C11.9797 36.7258 6.18368 35.7753 4.87739 34.5145C4.35428 34.8 4.06921 35.107 4.06921 35.4268C4.06921 36.946 10.4858 38.1775 18.4011 38.1775C26.3164 38.1775 32.733 36.946 32.733 35.4268C32.733 35.2421 32.6377 35.0618 32.4568 34.8873Z" fill="black"/>
</g>
<g opacity="0.2">
<path d="M30.746 32.4173C31.7379 32.6938 32.4732 33.0069 32.8856 33.3439C35.0472 32.7865 36.3243 32.0232 36.3243 31.0246C36.3243 30.9021 36.3042 30.7808 36.2665 30.6608C35.3447 31.4442 33.39 32.0214 30.746 32.4173Z" fill="black"/>
</g>
<path d="M23.282 33.5255C22.7182 33.5255 22.4038 33.2783 22.1957 33.1147C22.0363 32.9895 21.9768 32.9426 21.7992 32.9426C21.6217 32.9426 21.5621 32.9895 21.403 33.1146C21.1949 33.2783 20.8805 33.5254 20.3167 33.5254C19.7529 33.5254 19.4385 33.2783 19.2304 33.1146C19.0712 32.9895 19.0117 32.9426 18.8342 32.9426C18.5259 32.9426 18.2761 32.6928 18.2761 32.3845C18.2761 32.0762 18.5259 31.8264 18.8342 31.8264C19.3979 31.8264 19.7123 32.0736 19.9204 32.2372C20.0796 32.3625 20.1392 32.4094 20.3167 32.4094C20.4942 32.4094 20.5538 32.3625 20.713 32.2372C20.9211 32.0737 21.2355 31.8264 21.7992 31.8264C22.363 31.8264 22.6775 32.0736 22.8856 32.2372C23.0448 32.3625 23.1044 32.4094 23.282 32.4094C23.4595 32.4094 23.5192 32.3625 23.6784 32.2372C23.8864 32.0737 24.2008 31.8264 24.7647 31.8264C25.073 31.8264 25.3228 32.0762 25.3228 32.3845C25.3228 32.6928 25.073 32.9426 24.7647 32.9426C24.5872 32.9426 24.5275 32.9895 24.3683 33.1147C24.1603 33.2783 23.8458 33.5255 23.282 33.5255Z" fill="#FAE8B4"/>
<path d="M7.23138 22.0905C8.56833 21.4833 9.92023 21.2047 11.0712 21.2364C11.0331 21.1253 10.9888 21.0154 10.9379 20.9069C10.1061 19.1334 7.85889 18.4103 5.91855 19.2916C3.9782 20.1728 3.07962 22.3249 3.91138 24.0984C3.96228 24.2069 4.01854 24.3115 4.0797 24.412C4.80201 23.5294 5.89444 22.6977 7.23138 22.0905Z" fill="#59CC56"/>
<g opacity="0.2">
<path d="M10.9379 20.9069C10.7688 20.5464 10.5404 20.2301 10.2688 19.9611C10.3152 20.0621 10.3566 20.1643 10.392 20.2674C9.24095 20.2358 7.88912 20.5143 6.55218 21.1216C5.35252 21.6665 4.35072 22.3923 3.63556 23.1732C3.6805 23.487 3.77062 23.7982 3.9114 24.0984C3.9623 24.207 4.01855 24.3115 4.07972 24.412C4.80203 23.5295 5.89446 22.6978 7.2314 22.0906C8.56835 21.4834 9.92025 21.2048 11.0712 21.2365C11.0331 21.1254 10.9888 21.0155 10.9379 20.9069Z" fill="black"/>
</g>
<path d="M6.95172 19.3281C8.45854 19.7221 9.80226 20.3711 10.8022 21.1244C10.8281 21.0173 10.8479 20.9071 10.8611 20.7937C11.0777 18.9417 9.48036 16.9768 7.29341 16.405C5.10647 15.8333 3.15817 16.871 2.94163 18.723C2.92838 18.8364 2.92198 18.9501 2.92206 19.064C4.03361 18.8627 5.44482 18.9341 6.95172 19.3281Z" fill="#59CC56"/>
<g opacity="0.2">
<path d="M10.8022 19.8078C9.80226 19.0544 8.45854 18.4054 6.95172 18.0114C5.60264 17.6587 4.33088 17.5653 3.28146 17.6939C3.10429 17.9983 2.98605 18.3432 2.94163 18.723C2.92838 18.8363 2.92198 18.9501 2.92206 19.064C4.03361 18.8627 5.44482 18.934 6.95172 19.328C8.45854 19.722 9.80226 20.371 10.8022 21.1243C10.8281 21.0173 10.8479 20.9071 10.8611 20.7936C10.9003 20.4583 10.8793 20.1193 10.8068 19.7855C10.8052 19.7929 10.804 19.8005 10.8022 19.8078Z" fill="black"/>
</g>
<path d="M13.6457 20.2028C15.1076 20.2202 16.4355 20.5162 17.4456 20.9912C17.4615 20.8842 17.4713 20.7757 17.4746 20.6658C17.5293 18.8703 15.8537 17.3943 13.7321 17.369C11.6104 17.3437 9.84608 18.7787 9.79139 20.5742C9.78804 20.6841 9.79124 20.7927 9.80062 20.8999C10.8389 20.4494 12.1839 20.1853 13.6457 20.2028Z" fill="#59CC56"/>
<g opacity="0.2">
<path d="M13.771 19.2952C12.3125 19.2778 10.9628 19.5213 9.88372 19.9434C9.82992 20.1472 9.798 20.3579 9.79145 20.5741C9.7881 20.684 9.7913 20.7926 9.80068 20.8999C10.839 20.4494 12.1839 20.1853 13.6458 20.2027C15.1077 20.2201 16.4355 20.5161 17.4457 20.9911C17.4615 20.8842 17.4713 20.7757 17.4747 20.6658C17.4822 20.4196 17.4561 20.1797 17.4018 19.9484C16.385 19.5527 15.1322 19.3115 13.771 19.2952Z" fill="black"/>
</g>
<path d="M9.49036 22.5445C10.1338 22.4877 10.6077 21.9022 10.5489 21.2369C10.4901 20.5715 9.92088 20.0783 9.27748 20.1351C8.63407 20.192 8.16014 20.7774 8.21893 21.4427C8.27771 22.1081 8.84695 22.6014 9.49036 22.5445Z" fill="#E87941"/>
<g opacity="0.2">
<path d="M8.95287 21.2669C8.76409 20.9646 8.72272 20.609 8.80785 20.2887C8.7856 20.3014 8.76312 20.3136 8.7414 20.328C8.19909 20.6878 8.04424 21.4356 8.39561 21.9982C8.7469 22.5608 9.47137 22.7252 10.0137 22.3654C10.2645 22.1989 10.4313 21.9491 10.5045 21.6734C9.97082 21.9786 9.29018 21.807 8.95287 21.2669Z" fill="black"/>
</g>
<path d="M11.5724 22.5829C12.2578 22.5223 12.7626 21.8987 12.7 21.19C12.6374 20.4812 12.031 19.9558 11.3456 20.0163C10.6603 20.0769 10.1554 20.7005 10.2181 21.4093C10.2807 22.118 10.887 22.6434 11.5724 22.5829Z" fill="#E87941"/>
<g opacity="0.2">
<path d="M10.9706 21.2667C10.7633 20.9348 10.7221 20.5426 10.8242 20.1934C10.808 20.2031 10.7914 20.2117 10.7754 20.2222C10.1977 20.6055 10.0327 21.4021 10.407 22.0014C10.7812 22.6007 11.553 22.7758 12.1306 22.3925C12.3884 22.2215 12.5632 21.9681 12.6455 21.6868C12.0738 22.0295 11.3346 21.8495 10.9706 21.2667Z" fill="black"/>
</g>
</svg>
